<svg xmlns="http://www.w3.org/2000/svg" viewBox="0 0 48 48" width="48" height="48" role="img" aria-label="Session Purge">
  <path d="M9 14h30" fill="none" stroke="#E06C5A" stroke-width="3" stroke-linecap="round"/>
  <path d="M19 14V10.5A2.5 2.5 0 0 1 21.5 8h5A2.5 2.5 0 0 1 29 10.5V14" fill="none" stroke="#E06C5A" stroke-width="3" stroke-linejoin="round"/>
  <path d="M13 14l1.8 22.2A3.8 3.8 0 0 0 18.6 40h10.8a3.8 3.8 0 0 0 3.8-3.8L35 14"
        fill="none" stroke="#E06C5A" stroke-width="3" stroke-linejoin="round"/>
  <path d="M20 20.5v13M28 20.5v13" stroke="#E06C5A" stroke-width="2.6" stroke-linecap="round"/>
  <path d="M24 3.5v3.2M15.5 5.2l1.4 2.4M32.5 5.2l-1.4 2.4" stroke="#E06C5A" stroke-width="2.2" stroke-linecap="round"/>
</svg>
